<?xml version="1.0" encoding="UTF-8"?>
<svg version="1.1" xmlns="http://www.w3.org/2000/svg" width="2000" height="1031">
<path d="M0 0 C220.44 0 440.88 0 668 0 C668.04125 86.233125 668.0825 172.46625 668.125 261.3125 C668.14320801 288.54821533 668.16141602 315.78393066 668.18017578 343.8449707 C668.18920898 377.08435059 668.18920898 377.08435059 668.19088745 392.64152527 C668.19287459 404.23025925 668.20149054 415.81896914 668.21334685 427.40769555 C668.22528633 439.23825274 668.22966557 451.06879524 668.2268899 462.89935822 C668.22568728 469.31437754 668.2275678 475.7293528 668.23843026 482.144364 C668.24820831 487.95443729 668.24861728 493.76443564 668.24180222 499.57451248 C668.24095954 501.666002 668.24344868 503.75749634 668.24976516 505.84897649 C668.29479106 521.69982422 668.23663907 538.13216669 663.875 553.5 C663.66399658 554.26715332 663.45299316 555.03430664 663.2355957 555.82470703 C653.42283041 589.85290054 630.94368076 618.968369 600.11645508 636.50463867 C586.3069474 644.00122855 571.51947704 649.67047493 557.02043152 655.67181396 C547.81918136 659.48189638 538.64488428 663.35506795 529.47235107 667.2336731 C526.61035666 668.44369103 523.74786629 669.65252883 520.88525391 670.86108398 C507.76553623 676.40118949 494.65629624 681.96567435 481.55181885 687.54171753 C467.25839573 693.62320445 452.95069614 699.67044721 438.63824463 705.70700073 C427.0152659 710.60953298 415.39828148 715.52559843 403.79272461 720.46923828 C400.5396084 721.85475701 397.28523268 723.2372433 394.02954102 724.61669922 C392.40380191 725.3056483 390.77806953 725.99461322 389.15234375 726.68359375 C388.34307938 727.02648437 387.533815 727.369375 386.70002747 727.72265625 C381.19153902 730.06017299 375.69483379 732.42395229 370.20227051 734.79862976 C366.24564625 736.50570098 362.28320847 738.19898392 358.31964111 739.88986206 C356.4151469 740.70603065 354.51318451 741.5281355 352.61395264 742.35647583 C349.97686608 743.50581499 347.33161581 744.63394518 344.68359375 745.7578125 C343.90625381 746.10268204 343.12891388 746.44755157 342.32801819 746.8028717 C335.98798273 749.45236139 331.46454113 749.04805817 325.06396484 746.53564453 C323.60922493 745.90997131 322.15840232 745.27513702 320.7109375 744.6328125 C319.91178421 744.28669418 319.11263092 743.94057587 318.28926086 743.58396912 C316.55763936 742.83295521 314.82767547 742.0781101 313.09921265 741.31985474 C309.35587467 739.67800599 305.60435638 738.05524679 301.85325623 736.43122864 C299.88097928 735.57717029 297.90911216 734.722165 295.93763733 733.86625671 C285.5511445 729.35978945 275.12210029 724.95614209 264.6875 720.5625 C262.80236417 719.76776548 260.91727326 718.97292442 259.03222656 718.17797852 C255.24324096 716.58032263 251.4540118 714.98324668 247.66455078 713.38671875 C238.31675309 709.44834838 228.97044078 705.50645964 219.625 701.5625 C218.70036957 701.17232697 217.77573914 700.78215393 216.8230896 700.38015747 C201.38969884 693.8663876 185.97283044 687.31426029 170.56167603 680.74807739 C156.78473934 674.8785649 142.99692604 669.03554019 129.19830322 663.2171936 C123.63417521 660.87031805 118.07158914 658.51978935 112.50891113 656.16947937 C108.53044736 654.48897556 104.55121984 652.81038336 100.56884766 651.13916016 C68.48458946 637.67279826 40.04840011 622.31358297 21 592 C20.61118652 591.38576172 20.22237305 590.77152344 19.82177734 590.13867188 C3.31731771 563.61729052 -0.16584962 535.3265846 -0.12025452 504.70820618 C-0.12069233 502.53431689 -0.12156996 500.36042765 -0.12284851 498.1865387 C-0.12508747 492.2166359 -0.12108347 486.2467511 -0.11607273 480.2768506 C-0.1121526 474.41239094 -0.11299313 468.54793309 -0.11368043 462.68347244 C-0.11492053 450.76230179 -0.11163731 438.84113666 -0.10557556 426.91996765 C-0.09739375 410.80093227 -0.09547201 394.68190498 -0.09460449 378.56286621 C-0.08935482 339.81274302 -0.0753937 301.0626214 -0.0625 262.3125 C-0.0315625 132.4678125 -0.0315625 132.4678125 0 0 Z " fill="#1A2C4C" transform="translate(136,146)"/>
<path d="M0 0 C220.44 0 440.88 0 668 0 C668.04125 86.233125 668.0825 172.46625 668.125 261.3125 C668.14320801 288.54821533 668.16141602 315.78393066 668.18017578 343.8449707 C668.18920898 377.08435059 668.18920898 377.08435059 668.19088745 392.64152527 C668.19287459 404.23025925 668.20149054 415.81896914 668.21334685 427.40769555 C668.22528633 439.23825274 668.22966557 451.06879524 668.2268899 462.89935822 C668.22568728 469.31437754 668.2275678 475.7293528 668.23843026 482.144364 C668.24820831 487.95443729 668.24861728 493.76443564 668.24180222 499.57451248 C668.24095954 501.666002 668.24344868 503.75749634 668.24976516 505.84897649 C668.29479106 521.69982422 668.23663907 538.13216669 663.875 553.5 C663.66399658 554.26715332 663.45299316 555.03430664 663.2355957 555.82470703 C653.42283041 589.85290054 630.94368076 618.968369 600.11645508 636.50463867 C586.3069474 644.00122855 571.51947704 649.67047493 557.02043152 655.67181396 C547.81918136 659.48189638 538.64488428 663.35506795 529.47235107 667.2336731 C526.61035666 668.44369103 523.74786629 669.65252883 520.88525391 670.86108398 C507.76553623 676.40118949 494.65629624 681.96567435 481.55181885 687.54171753 C467.25839573 693.62320445 452.95069614 699.67044721 438.63824463 705.70700073 C427.0152659 710.60953298 415.39828148 715.52559843 403.79272461 720.46923828 C400.5396084 721.85475701 397.28523268 723.2372433 394.02954102 724.61669922 C392.40380191 725.3056483 390.77806953 725.99461322 389.15234375 726.68359375 C388.34307938 727.02648437 387.533815 727.369375 386.70002747 727.72265625 C381.19153902 730.06017299 375.69483379 732.42395229 370.20227051 734.79862976 C366.24564625 736.50570098 362.28320847 738.19898392 358.31964111 739.88986206 C356.4151469 740.70603065 354.51318451 741.5281355 352.61395264 742.35647583 C349.97686608 743.50581499 347.33161581 744.63394518 344.68359375 745.7578125 C343.90625381 746.10268204 343.12891388 746.44755157 342.32801819 746.8028717 C335.98798273 749.45236139 331.46454113 749.04805817 325.06396484 746.53564453 C323.60922493 745.90997131 322.15840232 745.27513702 320.7109375 744.6328125 C319.91178421 744.28669418 319.11263092 743.94057587 318.28926086 743.58396912 C316.55763936 742.83295521 314.82767547 742.0781101 313.09921265 741.31985474 C309.35587467 739.67800599 305.60435638 738.05524679 301.85325623 736.43122864 C299.88097928 735.57717029 297.90911216 734.722165 295.93763733 733.86625671 C285.5511445 729.35978945 275.12210029 724.95614209 264.6875 720.5625 C262.80236417 719.76776548 260.91727326 718.97292442 259.03222656 718.17797852 C255.24324096 716.58032263 251.4540118 714.98324668 247.66455078 713.38671875 C238.31675309 709.44834838 228.97044078 705.50645964 219.625 701.5625 C218.70036957 701.17232697 217.77573914 700.78215393 216.8230896 700.38015747 C201.38969884 693.8663876 185.97283044 687.31426029 170.56167603 680.74807739 C156.78473934 674.8785649 142.99692604 669.03554019 129.19830322 663.2171936 C123.63417521 660.87031805 118.07158914 658.51978935 112.50891113 656.16947937 C108.53044736 654.48897556 104.55121984 652.81038336 100.56884766 651.13916016 C68.48458946 637.67279826 40.04840011 622.31358297 21 592 C20.61118652 591.38576172 20.22237305 590.77152344 19.82177734 590.13867188 C3.31731771 563.61729052 -0.16584962 535.3265846 -0.12025452 504.70820618 C-0.12069233 502.53431689 -0.12156996 500.36042765 -0.12284851 498.1865387 C-0.12508747 492.2166359 -0.12108347 486.2467511 -0.11607273 480.2768506 C-0.1121526 474.41239094 -0.11299313 468.54793309 -0.11368043 462.68347244 C-0.11492053 450.76230179 -0.11163731 438.84113666 -0.10557556 426.91996765 C-0.09739375 410.80093227 -0.09547201 394.68190498 -0.09460449 378.56286621 C-0.08935482 339.81274302 -0.0753937 301.0626214 -0.0625 262.3125 C-0.0315625 132.4678125 -0.0315625 132.4678125 0 0 Z M28 27 C27.938125 110.20125 27.87625 193.4025 27.8125 279.125 C27.78518799 305.41430176 27.75787598 331.70360352 27.72973633 358.78955078 C27.7197042 382.3163904 27.7197042 382.3163904 27.71366882 405.8432312 C27.71068495 417.02872 27.69774923 428.21415279 27.67997972 439.39962398 C27.66209558 450.81176775 27.65573077 462.22386686 27.65966515 473.63602787 C27.66147226 479.82720271 27.65860862 486.01827492 27.64235461 492.20943093 C27.62773613 497.81169114 27.62704267 503.41377629 27.63729668 509.01604462 C27.63856543 511.0375674 27.63479006 513.05910125 27.62535226 515.08060241 C27.57665919 526.16490467 28.0399141 536.24546158 31 547 C31.19198292 547.73433419 31.38396584 548.46866839 31.58176643 549.22525513 C39.42702341 577.6256278 59.0374781 599.39068385 84.19812012 613.85447693 C90.37870257 617.32507307 96.7805383 620.05590791 103.34957886 622.69714355 C107.26409174 624.27239265 111.16403041 625.88325716 115.06640625 627.48828125 C115.92065689 627.83869476 116.77490753 628.18910828 117.65504456 628.55014038 C129.2971936 633.33635205 140.86229991 638.30470951 152.4375 643.25 C157.10121657 645.24039474 161.76537099 647.22976163 166.4296875 649.21875 C167.5779451 649.70844772 168.7262027 650.19814545 169.90925598 650.7026825 C180.95020532 655.40915824 192.00381338 660.08537751 203.0625 664.75 C204.42704315 665.3256369 204.42704315 665.3256369 205.81915283 665.91290283 C210.37852841 667.83609686 214.93818835 669.7586154 219.49804688 671.68066406 C242.65105769 681.44011342 265.80160392 691.20540913 288.92611694 701.03222656 C291.45687314 702.10668997 293.98868929 703.17861957 296.52075195 704.25 C303.33458887 707.13668094 310.13548121 710.03623064 316.875 713.09375 C317.85146484 713.53187012 318.82792969 713.96999023 319.83398438 714.42138672 C321.51992792 715.18253156 323.19936969 715.95839697 324.86914062 716.75439453 C325.93938477 717.23561768 325.93938477 717.23561768 327.03125 717.7265625 C327.61455078 718.00064941 328.19785156 718.27473633 328.79882812 718.55712891 C335.42444381 719.89018867 341.46132207 717.28073557 347.38671875 714.6328125 C348.18445709 714.28669418 348.98219543 713.94057587 349.80410767 713.58396912 C351.53011584 712.83377711 353.25409771 712.07890917 354.97622681 711.31985474 C358.70743981 709.67551379 362.44857133 708.05430564 366.18907166 706.43122864 C368.15594622 705.57742364 370.12229868 704.72241499 372.08815002 703.86625671 C382.46220839 699.35059744 392.88449641 694.95177977 403.3125 690.5625 C405.19773263 689.76780206 407.08290485 688.97296082 408.96801758 688.17797852 C412.75691261 686.58030074 416.5460542 684.98321029 420.33544922 683.38671875 C429.68324691 679.44834838 439.02955922 675.50645964 448.375 671.5625 C449.29963043 671.17232697 450.22426086 670.78215393 451.1769104 670.38015747 C466.60696755 663.86779457 482.020924 657.31804005 497.42825317 650.75210571 C508.38828943 646.0815401 519.35309141 641.4228566 530.33203125 636.796875 C531.34276703 636.37088013 532.35350281 635.94488525 533.39486694 635.50598145 C538.19837003 633.48189395 543.00275626 631.45994467 547.80859375 629.44140625 C556.17407201 625.92293266 564.52200933 622.36876277 572.82421875 618.703125 C573.54039871 618.38873474 574.25657867 618.07434448 574.99446106 617.75042725 C603.20193849 605.20598128 623.40942353 583.85186757 634.5390625 555.140625 C639.91619062 539.98404166 640.29031731 525.12647184 640.24050903 509.22061157 C640.24138529 507.13876798 640.24314169 505.05692461 640.24569702 502.9750824 C640.25016268 497.27406113 640.24218384 491.57311562 640.23214546 485.87210396 C640.22338687 479.622446 640.22633635 473.37279131 640.2277813 467.12312889 C640.22872246 456.37702586 640.22260052 445.63095264 640.21115112 434.88485718 C640.19477074 419.48337455 640.19094292 404.08191454 640.18920898 388.68041992 C640.17871501 351.66194191 640.15079271 314.64347051 640.125 277.625 C640.08375 194.91875 640.0425 112.2125 640 27 C438.04 27 236.08 27 28 27 Z " fill="#E0C079" transform="translate(136,146)"/>
<path d="M0 0 C81.84 0 163.68 0 248 0 C248 8.91 248 17.82 248 27 C175.4 27 102.8 27 28 27 C28.0904863 94.93264822 28.0904863 94.93264822 28.20898438 162.86523438 C28.22703409 172.02628537 28.24489799 181.18733671 28.26245117 190.34838867 C28.26465886 191.49655097 28.26686655 192.64471327 28.26914114 193.82766837 C28.30449509 212.35520196 28.32936252 230.88273552 28.35034702 249.41029032 C28.37212227 268.42961877 28.40518911 287.44890352 28.44870156 306.46819478 C28.47518851 318.20071694 28.49290567 329.93318465 28.49934604 341.66573522 C28.50460895 349.71508585 28.5208563 357.76436801 28.54566566 365.81368192 C28.55964963 370.45521153 28.56886307 375.09661865 28.56500816 379.73817062 C28.56158066 383.99431157 28.57206157 388.25019159 28.59323552 392.50627915 C28.59847396 394.03946577 28.59876956 395.57267971 28.59339563 397.10586586 C28.51569654 421.80473473 37.58410385 438.52987354 54.5 455.875 C59.36299036 460.71631577 64.43360068 465.19398438 69.875 469.375 C70.44927734 469.82601074 71.02355469 470.27702148 71.61523438 470.74169922 C84.11216148 480.00005237 99.65177207 485.61869852 113.8125 491.8125 C115.69428082 492.63929974 117.57586843 493.46653935 119.45727539 494.29418945 C123.35716004 496.00936365 127.25785661 497.72267059 131.15917969 499.43457031 C139.52903551 503.10879339 147.88965761 506.80389649 156.25003052 510.49963379 C158.92550927 511.68220008 161.60127688 512.86411071 164.27709961 514.04589844 C173.03184741 517.91336748 181.78287559 521.78902679 190.52734375 525.6796875 C191.78589424 526.23959129 191.78589424 526.23959129 193.06987 526.81080627 C197.03027403 528.57306416 200.99007324 530.33666392 204.94897461 532.10229492 C206.34878964 532.72576201 207.74861028 533.34921653 209.1484375 533.97265625 C210.08592079 534.39156631 210.08592079 534.39156631 211.04234314 534.81893921 C214.33965403 536.28650426 217.64633729 537.65853491 221 539 C221 457.16 221 375.32 221 291 C206.48 291 191.96 291 177 291 C177 282.09 177 273.18 177 264 C200.76 264 224.52 264 249 264 C249 368.61 249 473.22 249 581 C242.25088015 579.87514669 242.25088015 579.87514669 239.11401367 578.42797852 C238.40426392 578.10502808 237.69451416 577.78207764 236.96325684 577.44934082 C236.20581177 577.09609741 235.4483667 576.742854 234.66796875 576.37890625 C233.85646362 576.00785767 233.0449585 575.63680908 232.2088623 575.2545166 C230.4532454 574.45116901 228.69905017 573.64470878 226.94613647 572.83547974 C222.20039149 570.64554378 217.44339498 568.48028197 212.6875 566.3125 C211.70988205 565.86624771 210.7322641 565.41999542 209.72502136 564.96022034 C200.08645328 560.5675262 190.39415179 556.30212303 180.6875 552.0625 C177.27964728 550.5723012 173.87214387 549.0813056 170.46484375 547.58984375 C169.61236557 547.21673569 168.75988739 546.84362762 167.88157654 546.45921326 C155.95040825 541.23229658 144.05054253 535.93455783 132.15356445 530.63037109 C130.27688917 529.79386969 128.40018006 528.9574442 126.5234375 528.12109375 C125.58978867 527.70500854 124.65613983 527.28892334 123.69419861 526.86022949 C117.69551999 524.19028905 111.68762979 521.54216345 105.6730957 518.90814209 C101.56072694 517.10655809 97.45124511 515.29844048 93.34191895 513.4899292 C91.39143545 512.63369864 89.4395661 511.78061689 87.48620605 510.93096924 C77.52734019 506.59802471 67.87148955 502.36040348 59 496 C58.38833984 495.57033936 57.77667969 495.14067871 57.14648438 494.69799805 C48.88118728 488.74840919 41.36463657 482.01146641 34 475 C33.22011719 474.28457031 32.44023437 473.56914063 31.63671875 472.83203125 C14.05217871 456.18450045 1.02567725 431.71836814 -0.18375421 407.288221 C-0.27664022 402.88361748 -0.25736912 398.47933827 -0.24050903 394.0740509 C-0.24138233 392.36926369 -0.2431356 390.66447675 -0.24568737 388.95969123 C-0.25014042 384.29846247 -0.24218542 379.63732635 -0.23213124 374.97610939 C-0.22346949 369.94080931 -0.22641883 364.90551417 -0.22793579 359.87020874 C-0.22898292 351.15394167 -0.2227243 342.43770461 -0.21146011 333.72144508 C-0.19518475 321.11930342 -0.18999502 308.51717623 -0.18748413 295.9150252 C-0.18311022 275.46734907 -0.16980938 255.01968893 -0.15087891 234.57202148 C-0.13251223 214.71264728 -0.11838252 194.85327745 -0.10986328 174.99389648 C-0.10932729 173.75665071 -0.10879129 172.51940494 -0.10823905 171.24466687 C-0.10408005 161.56814885 -0.10016626 151.89163073 -0.09632993 142.21511257 C-0.07747309 94.81006037 -0.03723397 47.40504821 0 0 Z " fill="#DFBE79" transform="translate(222,229)"/>
<path d="M0 0 C1.08358292 0.00323273 1.08358292 0.00323273 2.1890564 0.00653076 C13.60919623 0.06104367 24.68490409 0.57063278 35.8125 3.3125 C36.61896973 3.51117676 37.42543945 3.70985352 38.25634766 3.91455078 C64.44426425 10.62360253 84.85452689 23.23377547 103.8125 42.3125 C104.49570313 42.98667969 105.17890625 43.66085938 105.8828125 44.35546875 C114.51015838 53.36005599 129.8125 72.31869591 129.8125 85.3125 C123.60608037 85.7357085 117.40816857 86.04236759 111.19067383 86.24633789 C109.08176415 86.33137848 106.97384407 86.44707971 104.8684082 86.5949707 C87.83065794 87.76094509 87.83065794 87.76094509 82.81713867 83.69378662 C79.37875671 79.66920032 77.11528916 75.1911227 74.90289307 70.41435242 C66.99545335 55.17189372 48.66030201 44.91163657 32.79980469 39.64404297 C5.92577125 31.46527086 -23.88400829 33.30371762 -48.953125 46.19921875 C-56.28443672 50.15024268 -62.95385146 54.77754412 -69.1875 60.3125 C-69.87199219 60.91449219 -70.55648438 61.51648438 -71.26171875 62.13671875 C-92.31122835 81.86288 -101.26158042 111.67742764 -102.31640625 139.7421875 C-102.76677498 168.14544212 -95.82689122 196.2871762 -77.1875 218.3125 C-76.55328125 219.10785156 -75.9190625 219.90320313 -75.265625 220.72265625 C-58.78624252 240.57282151 -33.18941048 249.89144869 -8.1875 252.3125 C18.08534543 254.3276471 44.27089675 247.38473252 64.57421875 230.3046875 C84.89926462 212.21433254 92.87841433 189.62762356 97.8125 163.3125 C60.8525 163.3125 23.8925 163.3125 -14.1875 163.3125 C-14.1875 153.0825 -14.1875 142.8525 -14.1875 132.3125 C35.9725 132.3125 86.1325 132.3125 137.8125 132.3125 C137.8125 174.35604971 137.8125 174.35604971 133.8125 187.3125 C133.44629659 188.61188959 133.08040887 189.91136819 132.71484375 191.2109375 C122.14120792 225.97848583 97.35905997 255.11825039 65.5 272.125 C31.2117408 289.82605855 -9.49036867 292.00332895 -46.21435547 280.68798828 C-76.07012584 270.94496534 -102.51706466 251.0492017 -119.1875 224.3125 C-119.76854492 223.3853418 -119.76854492 223.3853418 -120.36132812 222.43945312 C-135.11258863 198.50206993 -141.62402187 172.15571517 -141.5 144.125 C-141.49784485 143.45407318 -141.4956897 142.78314636 -141.49346924 142.09188843 C-141.29568197 103.47020878 -127.94871267 69.95832746 -102.1875 41.3125 C-101.59582031 40.64863281 -101.00414062 39.98476562 -100.39453125 39.30078125 C-84.48324309 22.44660194 -62.52744362 11.4277488 -40.5625 5 C-39.74056152 4.75741455 -38.91862305 4.5148291 -38.07177734 4.26489258 C-25.53309335 0.78110383 -12.94295474 -0.06987607 0 0 Z " fill="#1A2C4C" transform="translate(1100.1875,150.6875)"/>
<path d="M0 0 C12.54 0 25.08 0 38 0 C38 98.34 38 196.68 38 298 C25.46 298 12.92 298 0 298 C-0.33 285.79 -0.66 273.58 -1 261 C-3.64 264.63 -6.28 268.26 -9 272 C-24.65815559 289.5853132 -46.63064653 299.91517164 -70 302 C-100.35653149 303.52400497 -127.22147112 297.18976035 -150.55273438 276.63183594 C-173.79631519 255.41514203 -185.04471163 225.94972794 -186.875 194.94921875 C-186.91625 193.97597656 -186.9575 193.00273437 -187 192 C-187.04125 191.16082031 -187.0825 190.32164062 -187.125 189.45703125 C-187.90903919 157.85045157 -178.32521676 127.584389 -157 104 C-139.24054316 85.74646244 -114.64716447 73.89784594 -89 73 C-87.31197266 72.94005859 -87.31197266 72.94005859 -85.58984375 72.87890625 C-59.71397984 72.42400482 -36.24318703 79.77818683 -16 96 C-15.35804688 96.48984375 -14.71609375 96.9796875 -14.0546875 97.484375 C-8.65665735 101.79311656 -5.54555283 106.31805896 -1 112 C-0.67 75.04 -0.34 38.08 0 0 Z M-128.94140625 129.59765625 C-146.01334789 149.5203206 -149.18949998 173.75190373 -148 199 C-147.52343143 204.13670552 -146.41878227 209.04287814 -145 214 C-144.67128906 215.16402344 -144.34257813 216.32804687 -144.00390625 217.52734375 C-138.17563849 235.77849367 -125.88755101 251.66709635 -108.86328125 260.65625 C-89.52938487 269.9914331 -69.31472836 271.72266446 -48.7734375 264.93359375 C-28.84964484 257.13396949 -15.40697039 243.27155889 -6.28125 224.18359375 C2.99214816 201.14146112 3.03542607 173.11115236 -6.5 150.15234375 C-15.69725112 130.8237457 -29.15563843 117.84710932 -49 110 C-77.86680105 100.53728588 -107.80329521 107.55524099 -128.94140625 129.59765625 Z " fill="#1A2C4C" transform="translate(1815,137)"/>
<path d="M0 0 C12.21 0 24.42 0 37 0 C37.33 37.62 37.66 75.24 38 114 C41.96 109.05 41.96 109.05 46 104 C61.56437905 86.10341904 83.83721463 76.10787084 107.125 73.25 C108.74823393 73.13738986 110.37386079 73.05692725 112 73 C113.68802734 72.94005859 113.68802734 72.94005859 115.41015625 72.87890625 C136.32955287 72.51114023 154.84586043 76.87700254 173 87 C173.98871094 87.54527344 174.97742187 88.09054687 175.99609375 88.65234375 C200.21421909 103.02856039 214.56795529 127.67878214 221.40258789 154.37548828 C223.85450692 165.14709822 224.36928627 175.75593462 224.3125 186.75 C224.30926727 187.87668091 224.30926727 187.87668091 224.30596924 189.02612305 C224.25562884 199.95435532 223.93771594 210.40641827 221 221 C220.80664062 221.70898438 220.61328125 222.41796875 220.4140625 223.1484375 C212.78916152 250.35333113 196.51896235 274.40715357 171.96630859 288.89794922 C147.56882278 302.57193121 117.04320019 306.38636641 90 299 C75.79420675 294.89625616 63.04060275 288.05456873 52.0625 278.125 C51.5672583 277.6801123 51.0720166 277.23522461 50.56176758 276.77685547 C45.49817512 271.95559268 42.27691681 266.88076062 38 261 C37.67 273.21 37.34 285.42 37 298 C24.79 298 12.58 298 0 298 C0 199.66 0 101.32 0 0 Z M58 129 C45.4430062 143.32732408 37.80391169 161.87360104 37 181 C36.9484375 181.91136719 36.896875 182.82273437 36.84375 183.76171875 C36.14087294 207.10309459 43.21715879 229.54536771 59 247 C71.91964521 260.71997721 89.49793809 268.02171454 108.21875 269.203125 C128.72406221 269.49605803 147.82891567 263.07535078 163.03515625 249.05078125 C180.66181037 230.65318003 186.53038125 207.16384213 186.21484375 182.25 C185.53817517 159.28529755 176.61664761 138.87915423 160 123 C130.12359982 97.65461786 84.80776163 101.25011256 58 129 Z " fill="#1A2C4C" transform="translate(1640,509)"/>
<path d="M0 0 C0.73347656 0.65613281 1.46695312 1.31226563 2.22265625 1.98828125 C3.46208984 3.04982422 3.46208984 3.04982422 4.7265625 4.1328125 C20.75688993 18.10734221 32.5695031 35.11639602 40.22265625 54.98828125 C40.22265625 55.64828125 40.22265625 56.30828125 40.22265625 56.98828125 C34.01634258 57.43637671 27.81955696 57.76103943 21.60083008 57.97705078 C19.49174061 58.06710143 17.383761 58.18961875 15.27856445 58.34619141 C-1.76775742 59.58137362 -1.76775742 59.58137362 -6.77371216 55.26818848 C-10.23676066 50.96460614 -12.48665796 46.21539918 -14.69210815 41.18299866 C-22.75068303 24.8858051 -42.37052997 14.93862451 -58.75683594 9.30810547 C-85.31403837 0.78074353 -116.0415562 4.83239587 -140.578125 17.42578125 C-164.93533542 31.36583325 -180.32108019 53.696683 -187.58984375 80.36328125 C-196.05562456 113.50076612 -192.56664287 149.06327568 -175.77734375 178.98828125 C-173.34915357 182.89288535 -170.72930264 186.46644613 -167.77734375 189.98828125 C-167.06835938 190.84679687 -166.359375 191.7053125 -165.62890625 192.58984375 C-148.77440934 212.1647156 -124.53430245 223.27909251 -98.90380859 225.20410156 C-71.64419563 226.4681837 -45.42727315 220.48492729 -24.7109375 201.796875 C-19.56690132 196.96848437 -14.81972648 191.88333665 -12.25317383 185.22729492 C-10.43610647 180.87520872 -8.54283905 176.96147964 -4.77734375 173.98828125 C2.52636569 171.48683715 10.71623156 172.58551448 18.28515625 173.05078125 C20.41187454 173.12609341 22.53884841 173.19452237 24.66601562 173.25585938 C29.85790684 173.42051528 35.03746511 173.67878867 40.22265625 173.98828125 C39.76226891 175.41061324 39.298258 176.83177261 38.83276367 178.25244141 C38.44576546 179.4397435 38.44576546 179.4397435 38.0509491 180.65103149 C36.84301962 184.05952751 35.26350109 187.19357978 33.53515625 190.36328125 C33.18702881 191.00612061 32.83890137 191.64895996 32.48022461 192.3112793 C26.98198101 202.24817694 20.00847365 210.75979196 12.22265625 218.98828125 C11.45179688 219.82359375 10.6809375 220.65890625 9.88671875 221.51953125 C-14.07947526 246.64913274 -50.10046994 258.18928907 -84.14453125 259.19140625 C-124.00218149 259.75510782 -159.26914056 248.12556446 -188.77734375 220.98828125 C-189.80408203 220.06789063 -189.80408203 220.06789063 -190.8515625 219.12890625 C-216.47751088 194.9963115 -230.01110925 158.12787358 -231.05859375 123.5390625 C-231.66947019 88.89303525 -225.14079116 55.2336297 -203.77734375 26.98828125 C-203.10445312 26.09496094 -202.4315625 25.20164062 -201.73828125 24.28125 C-178.83945454 -4.82107704 -146.23865423 -23.51102195 -109.37036133 -28.06640625 C-72.05509077 -32.06568827 -29.33929865 -25.11202406 0 0 Z " fill="#1A2C4C" transform="translate(1189.77734375,551.01171875)"/>
<path d="M0 0 C23.23217774 21.10017404 34.53461093 49.25883418 36.4921875 80.20556641 C37.87757746 111.56523028 29.95221059 141.86003718 8.88623047 165.66748047 C7.37061007 167.29734361 5.85003567 168.92261891 4.32373047 170.54248047 C3.72173828 171.22052734 3.11974609 171.89857422 2.49951172 172.59716797 C-14.93145101 191.42714506 -42.52719132 201.24862342 -67.63525391 202.71533203 C-99.54361494 203.90415325 -129.89162908 196.65595665 -153.97705078 174.58544922 C-160.04196502 168.80911877 -165.24099171 162.66313742 -169.67626953 155.54248047 C-170.24732422 154.67751953 -170.81837891 153.81255859 -171.40673828 152.92138672 C-188.57066709 125.60308061 -192.16507903 88.85769101 -185.21972656 57.75878906 C-178.6042764 30.77987774 -163.06717125 5.30982757 -138.98901367 -9.46899414 C-137.23359243 -10.49665865 -135.46344995 -11.48621517 -133.67626953 -12.45751953 C-133.08765137 -12.7780127 -132.4990332 -13.09850586 -131.89257812 -13.42871094 C-91.03315278 -35.11759949 -35.27604214 -30.67258543 0 0 Z M-130.30126953 29.22998047 C-146.73975355 49.15776534 -151.49772844 74.29255935 -149.21362305 99.58276367 C-146.90138535 121.66325284 -138.67193812 140.5703201 -121.64111328 155.37060547 C-112.79380636 161.85163663 -102.42851362 166.42128946 -91.67626953 168.54248047 C-90.03658203 168.88279297 -90.03658203 168.88279297 -88.36376953 169.22998047 C-66.64611897 171.07045933 -46.54436868 166.70930428 -29.35205078 152.91357422 C-13.75620116 139.09360237 -3.7839825 120.22500806 -2.47119141 99.26879883 C-2.37218868 95.62817569 -2.34744228 91.99690297 -2.36376953 88.35498047 C-2.36868408 87.06793213 -2.37359863 85.78088379 -2.37866211 84.45483398 C-2.65375428 62.16390351 -9.47389424 42.37207867 -25.08251953 26.01123047 C-39.98421445 11.82768952 -59.96605089 5.88193726 -80.21923828 6.26904297 C-99.54116813 7.1319724 -117.05613142 15.06214734 -130.30126953 29.22998047 Z " fill="#1A2C4C" transform="translate(1459.67626953125,236.45751953125)"/>
<path d="M0 0 C12.21 0 24.42 0 37 0 C37.029729 5.78144531 37.029729 5.78144531 37.06005859 11.6796875 C37.12717268 24.46007983 37.20471258 37.24039144 37.28752708 50.02069092 C37.33745186 57.76409979 37.38389536 65.50749913 37.421875 73.25097656 C37.45502289 80.00747301 37.49497603 86.76389078 37.54279006 93.52029991 C37.56783094 97.09114549 37.58967551 100.66194041 37.60334396 104.23284912 C37.36105167 142.58684449 37.36105167 142.58684449 55.0625 175.6875 C67.99432838 187.74751972 84.78022271 191.40598557 101.97265625 191.203125 C115.87381736 190.65417474 131.14360196 186.31805603 141 176 C141.66 176 142.32 176 143 176 C143.27328125 175.40960937 143.5465625 174.81921875 143.828125 174.2109375 C144.96192184 172.0718408 146.19651193 170.4708111 147.75 168.625 C161.62343257 150.24015781 160.4686974 127.14433774 160.50611091 105.31919861 C160.5156002 101.60629105 160.54181048 97.89349886 160.56611633 94.18066406 C160.60949856 87.1759419 160.63821797 80.17124248 160.66143972 73.16642761 C160.68864462 65.18065129 160.7325455 57.19499267 160.77772844 49.20930099 C160.87016889 32.80624842 160.93983097 16.40320753 161 0 C173.54 0 186.08 0 199 0 C199 72.93 199 145.86 199 221 C186.46 221 173.92 221 161 221 C160.67 211.76 160.34 202.52 160 193 C158.411875 194.815 156.82375 196.63 155.1875 198.5 C140.81762717 214.34688941 120.73597713 223.45693511 99.3984375 224.91015625 C98.60695313 224.93980469 97.81546875 224.96945312 97 225 C96.10539062 225.03996094 95.21078125 225.07992187 94.2890625 225.12109375 C69.21074036 225.69258366 44.75713751 218.61021917 26.2734375 201.234375 C25.52320313 200.49703125 24.77296875 199.7596875 24 199 C23.06027344 198.07960938 23.06027344 198.07960938 22.1015625 197.140625 C4.04027717 178.01691112 -0.18480901 151.25597166 -0.11352539 126.01318359 C-0.11324273 124.63241579 -0.11340279 123.25164784 -0.1139679 121.87088013 C-0.11425279 118.1525692 -0.10840613 114.43429105 -0.10139394 110.71598768 C-0.09510886 106.81893045 -0.09455254 102.92187231 -0.09336853 99.02481079 C-0.09027034 91.65861544 -0.08207746 84.29243507 -0.07201904 76.92624629 C-0.06081078 68.53439862 -0.05533561 60.1425502 -0.05032361 51.7506969 C-0.03989347 34.50045447 -0.02156694 17.25023265 0 0 Z " fill="#1A2C4C" transform="translate(1380,586)"/>
<path d="M0 0 C9.24 0 18.48 0 28 0 C28 176.88 28 353.76 28 536 C3.3 549 3.3 549 0 549 C0 367.83 0 186.66 0 0 Z " fill="#DCBC78" transform="translate(542,222)"/>
<path d="M0 0 C51.15 0 102.3 0 155 0 C155 9.24 155 18.48 155 28 C112.76 28 70.52 28 27 28 C27.06143464 71.22760096 27.06143464 71.22760096 27.16015625 114.45507812 C27.17624714 120.29044517 27.19209044 126.12581281 27.20751953 131.96118164 C27.20946347 132.69249198 27.21140741 133.42380231 27.21341026 134.17727357 C27.24438233 145.96462407 27.26139188 157.75195511 27.27319422 169.53933861 C27.28563045 181.6475395 27.3131874 193.75563882 27.35461307 205.86377555 C27.37743588 212.6600494 27.39340603 219.45619228 27.39188385 226.25250816 C27.39113654 232.65555518 27.40911675 239.05828227 27.44116783 245.46124649 C27.44965358 247.80526711 27.45142583 250.14932366 27.44580269 252.49335289 C27.40327552 272.95373432 30.03068706 289.35607237 44.73828125 304.79296875 C51.8333345 311.71646631 59.98498553 315.70130795 68.86352539 319.90673828 C71.96748621 321.49507522 74.97265802 323.2700903 78 325 C78 334.57 78 344.14 78 354 C72.9918387 353.16530645 70.01592138 352.2977985 65.5625 350.19140625 C64.66583366 349.76815315 64.66583366 349.76815315 63.75105286 349.33634949 C61.82862246 348.42254269 59.91358235 347.49468212 58 346.5625 C57.34760345 346.24631714 56.69520691 345.93013428 56.02304077 345.60437012 C30.44173542 333.14844194 12.12259731 315.95809657 2.625 288.5625 C0.0196829 280.59929166 -0.14321121 272.98313009 -0.12025452 264.68019104 C-0.12110894 263.54714961 -0.12196337 262.41410819 -0.12284368 261.24673218 C-0.12448937 257.4542669 -0.11899199 253.66184596 -0.11352539 249.86938477 C-0.11268618 247.14917472 -0.11335767 244.42896554 -0.1139679 241.70875549 C-0.11449157 235.8544373 -0.11136108 230.00013028 -0.10573006 224.1458149 C-0.09759392 215.68151744 -0.09499767 207.21722537 -0.09374207 198.75292443 C-0.09155487 185.01928055 -0.08490379 171.28564261 -0.07543945 157.55200195 C-0.06625674 144.21313506 -0.05919158 130.8742698 -0.05493164 117.53540039 C-0.05466364 116.70444554 -0.05439565 115.87349069 -0.05411953 115.01735538 C-0.05204004 108.5184878 -0.05008314 102.01962018 -0.04816496 95.52075255 C-0.03873578 63.68049624 -0.0186164 31.84025482 0 0 Z " fill="#E0BF79" transform="translate(308,324)"/>
<path d="M0 0 C8.91 0 17.82 0 27 0 C27 153.45 27 306.9 27 465 C2.3 478 2.3 478 0 478 C0 320.26 0 162.52 0 0 Z " fill="#E1C079" transform="translate(659,222)"/>
<path d="M0 0 C12.54 0 25.08 0 38 0 C38 98.34 38 196.68 38 298 C25.46 298 12.92 298 0 298 C0 199.66 0 101.32 0 0 Z " fill="#1A2C4C" transform="translate(1283,509)"/>
<path d="M0 0 C12.54 0 25.08 0 38 0 C38 98.34 38 196.68 38 298 C25.46 298 12.92 298 0 298 C0 199.66 0 101.32 0 0 Z " fill="#1A2C4C" transform="translate(1543,137)"/>
</svg>
